<?xml version="1.0" encoding="utf-8" standalone="no"?>
<!DOCTYPE svg PUBLIC "-//W3C//DTD SVG 1.1//EN"
  "http://www.w3.org/Graphics/SVG/1.1/DTD/svg11.dtd">
<svg xmlns:xlink="http://www.w3.org/1999/xlink" width="720pt" height="576pt" viewBox="0 0 720 576" xmlns="http://www.w3.org/2000/svg" version="1.1">
 <metadata>
  <rdf:RDF xmlns:dc="http://purl.org/dc/elements/1.1/" xmlns:cc="http://creativecommons.org/ns#" xmlns:rdf="http://www.w3.org/1999/02/22-rdf-syntax-ns#">
   <cc:Work>
    <dc:type rdf:resource="http://purl.org/dc/dcmitype/StillImage"/>
    <dc:date>2025-07-04T17:06:19.179683</dc:date>
    <dc:format>image/svg+xml</dc:format>
    <dc:creator>
     <cc:Agent>
      <dc:title>Matplotlib v3.9.2, https://matplotlib.org/</dc:title>
     </cc:Agent>
    </dc:creator>
   </cc:Work>
  </rdf:RDF>
 </metadata>
 <defs>
  <style type="text/css">*{stroke-linejoin: round; stroke-linecap: butt}</style>
 </defs>
 <g id="figure_1">
  <g id="patch_1">
   <path d="M 0 576 
L 720 576 
L 720 0 
L 0 0 
z
" style="fill: #ffffff"/>
  </g>
  <g id="axes_1">
   <g id="patch_2">
    <path d="M 83.2775 519.2725 
L 709.2 519.2725 
L 709.2 43.76 
L 83.2775 43.76 
z
" style="fill: #ffffff"/>
   </g>
   <g id="matplotlib.axis_1">
    <g id="xtick_1">
     <g id="line2d_1">
      <path d="M 107.351442 519.2725 
L 107.351442 43.76 
" clip-path="url(#p85a60f9fb8)" style="fill: none; stroke: #cccccc; stroke-width: 0.8; stroke-linecap: round"/>
     </g>
     <g id="line2d_2"/>
     <g id="text_1">
      <!-- 0 -->
      <g style="fill: #262626" transform="translate(103.458786 532.793437) scale(0.14 -0.14)">
       <defs>
        <path id="ArialMT-30" d="M 266 2259 
Q 266 3072 433 3567 
Q 600 4063 929 4331 
Q 1259 4600 1759 4600 
Q 2128 4600 2406 4451 
Q 2684 4303 2865 4023 
Q 3047 3744 3150 3342 
Q 3253 2941 3253 2259 
Q 3253 1453 3087 958 
Q 2922 463 2592 192 
Q 2263 -78 1759 -78 
Q 1097 -78 719 397 
Q 266 969 266 2259 
z
M 844 2259 
Q 844 1131 1108 757 
Q 1372 384 1759 384 
Q 2147 384 2411 759 
Q 2675 1134 2675 2259 
Q 2675 3391 2411 3762 
Q 2147 4134 1753 4134 
Q 1366 4134 1134 3806 
Q 844 3388 844 2259 
z
" transform="scale(0.015625)"/>
       </defs>
       <use xlink:href="#ArialMT-30"/>
      </g>
     </g>
    </g>
    <g id="xtick_2">
     <g id="line2d_3">
      <path d="M 203.647212 519.2725 
L 203.647212 43.76 
" clip-path="url(#p85a60f9fb8)" style="fill: none; stroke: #cccccc; stroke-width: 0.8; stroke-linecap: round"/>
     </g>
     <g id="line2d_4"/>
     <g id="text_2">
      <!-- 2 -->
      <g style="fill: #262626" transform="translate(199.754555 532.793437) scale(0.14 -0.14)">
       <defs>
        <path id="ArialMT-32" d="M 3222 541 
L 3222 0 
L 194 0 
Q 188 203 259 391 
Q 375 700 629 1000 
Q 884 1300 1366 1694 
Q 2113 2306 2375 2664 
Q 2638 3022 2638 3341 
Q 2638 3675 2398 3904 
Q 2159 4134 1775 4134 
Q 1369 4134 1125 3890 
Q 881 3647 878 3216 
L 300 3275 
Q 359 3922 746 4261 
Q 1134 4600 1788 4600 
Q 2447 4600 2831 4234 
Q 3216 3869 3216 3328 
Q 3216 3053 3103 2787 
Q 2991 2522 2730 2228 
Q 2469 1934 1863 1422 
Q 1356 997 1212 845 
Q 1069 694 975 541 
L 3222 541 
z
" transform="scale(0.015625)"/>
       </defs>
       <use xlink:href="#ArialMT-32"/>
      </g>
     </g>
    </g>
    <g id="xtick_3">
     <g id="line2d_5">
      <path d="M 299.942981 519.2725 
L 299.942981 43.76 
" clip-path="url(#p85a60f9fb8)" style="fill: none; stroke: #cccccc; stroke-width: 0.8; stroke-linecap: round"/>
     </g>
     <g id="line2d_6"/>
     <g id="text_3">
      <!-- 4 -->
      <g style="fill: #262626" transform="translate(296.050325 532.793437) scale(0.14 -0.14)">
       <defs>
        <path id="ArialMT-34" d="M 2069 0 
L 2069 1097 
L 81 1097 
L 81 1613 
L 2172 4581 
L 2631 4581 
L 2631 1613 
L 3250 1613 
L 3250 1097 
L 2631 1097 
L 2631 0 
L 2069 0 
z
M 2069 1613 
L 2069 3678 
L 634 1613 
L 2069 1613 
z
" transform="scale(0.015625)"/>
       </defs>
       <use xlink:href="#ArialMT-34"/>
      </g>
     </g>
    </g>
    <g id="xtick_4">
     <g id="line2d_7">
      <path d="M 396.23875 519.2725 
L 396.23875 43.76 
" clip-path="url(#p85a60f9fb8)" style="fill: none; stroke: #cccccc; stroke-width: 0.8; stroke-linecap: round"/>
     </g>
     <g id="line2d_8"/>
     <g id="text_4">
      <!-- 6 -->
      <g style="fill: #262626" transform="translate(392.346094 532.793437) scale(0.14 -0.14)">
       <defs>
        <path id="ArialMT-36" d="M 3184 3459 
L 2625 3416 
Q 2550 3747 2413 3897 
Q 2184 4138 1850 4138 
Q 1581 4138 1378 3988 
Q 1113 3794 959 3422 
Q 806 3050 800 2363 
Q 1003 2672 1297 2822 
Q 1591 2972 1913 2972 
Q 2475 2972 2870 2558 
Q 3266 2144 3266 1488 
Q 3266 1056 3080 686 
Q 2894 316 2569 119 
Q 2244 -78 1831 -78 
Q 1128 -78 684 439 
Q 241 956 241 2144 
Q 241 3472 731 4075 
Q 1159 4600 1884 4600 
Q 2425 4600 2770 4297 
Q 3116 3994 3184 3459 
z
M 888 1484 
Q 888 1194 1011 928 
Q 1134 663 1356 523 
Q 1578 384 1822 384 
Q 2178 384 2434 671 
Q 2691 959 2691 1453 
Q 2691 1928 2437 2201 
Q 2184 2475 1800 2475 
Q 1419 2475 1153 2201 
Q 888 1928 888 1484 
z
" transform="scale(0.015625)"/>
       </defs>
       <use xlink:href="#ArialMT-36"/>
      </g>
     </g>
    </g>
    <g id="xtick_5">
     <g id="line2d_9">
      <path d="M 492.534519 519.2725 
L 492.534519 43.76 
" clip-path="url(#p85a60f9fb8)" style="fill: none; stroke: #cccccc; stroke-width: 0.8; stroke-linecap: round"/>
     </g>
     <g id="line2d_10"/>
     <g id="text_5">
      <!-- 8 -->
      <g style="fill: #262626" transform="translate(488.641863 532.793437) scale(0.14 -0.14)">
       <defs>
        <path id="ArialMT-38" d="M 1131 2484 
Q 781 2613 612 2850 
Q 444 3088 444 3419 
Q 444 3919 803 4259 
Q 1163 4600 1759 4600 
Q 2359 4600 2725 4251 
Q 3091 3903 3091 3403 
Q 3091 3084 2923 2848 
Q 2756 2613 2416 2484 
Q 2838 2347 3058 2040 
Q 3278 1734 3278 1309 
Q 3278 722 2862 322 
Q 2447 -78 1769 -78 
Q 1091 -78 675 323 
Q 259 725 259 1325 
Q 259 1772 486 2073 
Q 713 2375 1131 2484 
z
M 1019 3438 
Q 1019 3113 1228 2906 
Q 1438 2700 1772 2700 
Q 2097 2700 2305 2904 
Q 2513 3109 2513 3406 
Q 2513 3716 2298 3927 
Q 2084 4138 1766 4138 
Q 1444 4138 1231 3931 
Q 1019 3725 1019 3438 
z
M 838 1322 
Q 838 1081 952 856 
Q 1066 631 1291 507 
Q 1516 384 1775 384 
Q 2178 384 2440 643 
Q 2703 903 2703 1303 
Q 2703 1709 2433 1975 
Q 2163 2241 1756 2241 
Q 1359 2241 1098 1978 
Q 838 1716 838 1322 
z
" transform="scale(0.015625)"/>
       </defs>
       <use xlink:href="#ArialMT-38"/>
      </g>
     </g>
    </g>
    <g id="xtick_6">
     <g id="line2d_11">
      <path d="M 588.830288 519.2725 
L 588.830288 43.76 
" clip-path="url(#p85a60f9fb8)" style="fill: none; stroke: #cccccc; stroke-width: 0.8; stroke-linecap: round"/>
     </g>
     <g id="line2d_12"/>
     <g id="text_6">
      <!-- 10 -->
      <g style="fill: #262626" transform="translate(581.044976 532.793437) scale(0.14 -0.14)">
       <defs>
        <path id="ArialMT-31" d="M 2384 0 
L 1822 0 
L 1822 3584 
Q 1619 3391 1289 3197 
Q 959 3003 697 2906 
L 697 3450 
Q 1169 3672 1522 3987 
Q 1875 4303 2022 4600 
L 2384 4600 
L 2384 0 
z
" transform="scale(0.015625)"/>
       </defs>
       <use xlink:href="#ArialMT-31"/>
       <use xlink:href="#ArialMT-30" x="55.615234"/>
      </g>
     </g>
    </g>
    <g id="xtick_7">
     <g id="line2d_13">
      <path d="M 685.126058 519.2725 
L 685.126058 43.76 
" clip-path="url(#p85a60f9fb8)" style="fill: none; stroke: #cccccc; stroke-width: 0.8; stroke-linecap: round"/>
     </g>
     <g id="line2d_14"/>
     <g id="text_7">
      <!-- 12 -->
      <g style="fill: #262626" transform="translate(677.340745 532.793437) scale(0.14 -0.14)">
       <use xlink:href="#ArialMT-31"/>
       <use xlink:href="#ArialMT-32" x="55.615234"/>
      </g>
     </g>
    </g>
    <g id="text_8">
     <!-- Incubation time [hour] -->
     <g style="fill: #262626" transform="translate(319.31125 562.028437) scale(0.16 -0.16)">
      <defs>
       <path id="ArialMT-49" d="M 597 0 
L 597 4581 
L 1203 4581 
L 1203 0 
L 597 0 
z
" transform="scale(0.015625)"/>
       <path id="ArialMT-6e" d="M 422 0 
L 422 3319 
L 928 3319 
L 928 2847 
Q 1294 3394 1984 3394 
Q 2284 3394 2536 3286 
Q 2788 3178 2913 3003 
Q 3038 2828 3088 2588 
Q 3119 2431 3119 2041 
L 3119 0 
L 2556 0 
L 2556 2019 
Q 2556 2363 2490 2533 
Q 2425 2703 2258 2804 
Q 2091 2906 1866 2906 
Q 1506 2906 1245 2678 
Q 984 2450 984 1813 
L 984 0 
L 422 0 
z
" transform="scale(0.015625)"/>
       <path id="ArialMT-63" d="M 2588 1216 
L 3141 1144 
Q 3050 572 2676 248 
Q 2303 -75 1759 -75 
Q 1078 -75 664 370 
Q 250 816 250 1647 
Q 250 2184 428 2587 
Q 606 2991 970 3192 
Q 1334 3394 1763 3394 
Q 2303 3394 2647 3120 
Q 2991 2847 3088 2344 
L 2541 2259 
Q 2463 2594 2264 2762 
Q 2066 2931 1784 2931 
Q 1359 2931 1093 2626 
Q 828 2322 828 1663 
Q 828 994 1084 691 
Q 1341 388 1753 388 
Q 2084 388 2306 591 
Q 2528 794 2588 1216 
z
" transform="scale(0.015625)"/>
       <path id="ArialMT-75" d="M 2597 0 
L 2597 488 
Q 2209 -75 1544 -75 
Q 1250 -75 995 37 
Q 741 150 617 320 
Q 494 491 444 738 
Q 409 903 409 1263 
L 409 3319 
L 972 3319 
L 972 1478 
Q 972 1038 1006 884 
Q 1059 663 1231 536 
Q 1403 409 1656 409 
Q 1909 409 2131 539 
Q 2353 669 2445 892 
Q 2538 1116 2538 1541 
L 2538 3319 
L 3100 3319 
L 3100 0 
L 2597 0 
z
" transform="scale(0.015625)"/>
       <path id="ArialMT-62" d="M 941 0 
L 419 0 
L 419 4581 
L 981 4581 
L 981 2947 
Q 1338 3394 1891 3394 
Q 2197 3394 2470 3270 
Q 2744 3147 2920 2923 
Q 3097 2700 3197 2384 
Q 3297 2069 3297 1709 
Q 3297 856 2875 390 
Q 2453 -75 1863 -75 
Q 1275 -75 941 416 
L 941 0 
z
M 934 1684 
Q 934 1088 1097 822 
Q 1363 388 1816 388 
Q 2184 388 2453 708 
Q 2722 1028 2722 1663 
Q 2722 2313 2464 2622 
Q 2206 2931 1841 2931 
Q 1472 2931 1203 2611 
Q 934 2291 934 1684 
z
" transform="scale(0.015625)"/>
       <path id="ArialMT-61" d="M 2588 409 
Q 2275 144 1986 34 
Q 1697 -75 1366 -75 
Q 819 -75 525 192 
Q 231 459 231 875 
Q 231 1119 342 1320 
Q 453 1522 633 1644 
Q 813 1766 1038 1828 
Q 1203 1872 1538 1913 
Q 2219 1994 2541 2106 
Q 2544 2222 2544 2253 
Q 2544 2597 2384 2738 
Q 2169 2928 1744 2928 
Q 1347 2928 1158 2789 
Q 969 2650 878 2297 
L 328 2372 
Q 403 2725 575 2942 
Q 747 3159 1072 3276 
Q 1397 3394 1825 3394 
Q 2250 3394 2515 3294 
Q 2781 3194 2906 3042 
Q 3031 2891 3081 2659 
Q 3109 2516 3109 2141 
L 3109 1391 
Q 3109 606 3145 398 
Q 3181 191 3288 0 
L 2700 0 
Q 2613 175 2588 409 
z
M 2541 1666 
Q 2234 1541 1622 1453 
Q 1275 1403 1131 1340 
Q 988 1278 909 1158 
Q 831 1038 831 891 
Q 831 666 1001 516 
Q 1172 366 1500 366 
Q 1825 366 2078 508 
Q 2331 650 2450 897 
Q 2541 1088 2541 1459 
L 2541 1666 
z
" transform="scale(0.015625)"/>
       <path id="ArialMT-74" d="M 1650 503 
L 1731 6 
Q 1494 -44 1306 -44 
Q 1000 -44 831 53 
Q 663 150 594 308 
Q 525 466 525 972 
L 525 2881 
L 113 2881 
L 113 3319 
L 525 3319 
L 525 4141 
L 1084 4478 
L 1084 3319 
L 1650 3319 
L 1650 2881 
L 1084 2881 
L 1084 941 
Q 1084 700 1114 631 
Q 1144 563 1211 522 
Q 1278 481 1403 481 
Q 1497 481 1650 503 
z
" transform="scale(0.015625)"/>
       <path id="ArialMT-69" d="M 425 3934 
L 425 4581 
L 988 4581 
L 988 3934 
L 425 3934 
z
M 425 0 
L 425 3319 
L 988 3319 
L 988 0 
L 425 0 
z
" transform="scale(0.015625)"/>
       <path id="ArialMT-6f" d="M 213 1659 
Q 213 2581 725 3025 
Q 1153 3394 1769 3394 
Q 2453 3394 2887 2945 
Q 3322 2497 3322 1706 
Q 3322 1066 3130 698 
Q 2938 331 2570 128 
Q 2203 -75 1769 -75 
Q 1072 -75 642 372 
Q 213 819 213 1659 
z
M 791 1659 
Q 791 1022 1069 705 
Q 1347 388 1769 388 
Q 2188 388 2466 706 
Q 2744 1025 2744 1678 
Q 2744 2294 2464 2611 
Q 2184 2928 1769 2928 
Q 1347 2928 1069 2612 
Q 791 2297 791 1659 
z
" transform="scale(0.015625)"/>
       <path id="ArialMT-20" transform="scale(0.015625)"/>
       <path id="ArialMT-6d" d="M 422 0 
L 422 3319 
L 925 3319 
L 925 2853 
Q 1081 3097 1340 3245 
Q 1600 3394 1931 3394 
Q 2300 3394 2536 3241 
Q 2772 3088 2869 2813 
Q 3263 3394 3894 3394 
Q 4388 3394 4653 3120 
Q 4919 2847 4919 2278 
L 4919 0 
L 4359 0 
L 4359 2091 
Q 4359 2428 4304 2576 
Q 4250 2725 4106 2815 
Q 3963 2906 3769 2906 
Q 3419 2906 3187 2673 
Q 2956 2441 2956 1928 
L 2956 0 
L 2394 0 
L 2394 2156 
Q 2394 2531 2256 2718 
Q 2119 2906 1806 2906 
Q 1569 2906 1367 2781 
Q 1166 2656 1075 2415 
Q 984 2175 984 1722 
L 984 0 
L 422 0 
z
" transform="scale(0.015625)"/>
       <path id="ArialMT-65" d="M 2694 1069 
L 3275 997 
Q 3138 488 2766 206 
Q 2394 -75 1816 -75 
Q 1088 -75 661 373 
Q 234 822 234 1631 
Q 234 2469 665 2931 
Q 1097 3394 1784 3394 
Q 2450 3394 2872 2941 
Q 3294 2488 3294 1666 
Q 3294 1616 3291 1516 
L 816 1516 
Q 847 969 1125 678 
Q 1403 388 1819 388 
Q 2128 388 2347 550 
Q 2566 713 2694 1069 
z
M 847 1978 
L 2700 1978 
Q 2663 2397 2488 2606 
Q 2219 2931 1791 2931 
Q 1403 2931 1139 2672 
Q 875 2413 847 1978 
z
" transform="scale(0.015625)"/>
       <path id="ArialMT-5b" d="M 434 -1272 
L 434 4581 
L 1675 4581 
L 1675 4116 
L 997 4116 
L 997 -806 
L 1675 -806 
L 1675 -1272 
L 434 -1272 
z
" transform="scale(0.015625)"/>
       <path id="ArialMT-68" d="M 422 0 
L 422 4581 
L 984 4581 
L 984 2938 
Q 1378 3394 1978 3394 
Q 2347 3394 2619 3248 
Q 2891 3103 3008 2847 
Q 3125 2591 3125 2103 
L 3125 0 
L 2563 0 
L 2563 2103 
Q 2563 2525 2380 2717 
Q 2197 2909 1863 2909 
Q 1613 2909 1392 2779 
Q 1172 2650 1078 2428 
Q 984 2206 984 1816 
L 984 0 
L 422 0 
z
" transform="scale(0.015625)"/>
       <path id="ArialMT-72" d="M 416 0 
L 416 3319 
L 922 3319 
L 922 2816 
Q 1116 3169 1280 3281 
Q 1444 3394 1641 3394 
Q 1925 3394 2219 3213 
L 2025 2691 
Q 1819 2813 1613 2813 
Q 1428 2813 1281 2702 
Q 1134 2591 1072 2394 
Q 978 2094 978 1738 
L 978 0 
L 416 0 
z
" transform="scale(0.015625)"/>
       <path id="ArialMT-5d" d="M 1363 -1272 
L 122 -1272 
L 122 -806 
L 800 -806 
L 800 4116 
L 122 4116 
L 122 4581 
L 1363 4581 
L 1363 -1272 
z
" transform="scale(0.015625)"/>
      </defs>
      <use xlink:href="#ArialMT-49"/>
      <use xlink:href="#ArialMT-6e" x="27.783203"/>
      <use xlink:href="#ArialMT-63" x="83.398438"/>
      <use xlink:href="#ArialMT-75" x="133.398438"/>
      <use xlink:href="#ArialMT-62" x="189.013672"/>
      <use xlink:href="#ArialMT-61" x="244.628906"/>
      <use xlink:href="#ArialMT-74" x="300.244141"/>
      <use xlink:href="#ArialMT-69" x="328.027344"/>
      <use xlink:href="#ArialMT-6f" x="350.244141"/>
      <use xlink:href="#ArialMT-6e" x="405.859375"/>
      <use xlink:href="#ArialMT-20" x="461.474609"/>
      <use xlink:href="#ArialMT-74" x="489.257812"/>
      <use xlink:href="#ArialMT-69" x="517.041016"/>
      <use xlink:href="#ArialMT-6d" x="539.257812"/>
      <use xlink:href="#ArialMT-65" x="622.558594"/>
      <use xlink:href="#ArialMT-20" x="678.173828"/>
      <use xlink:href="#ArialMT-5b" x="705.957031"/>
      <use xlink:href="#ArialMT-68" x="733.740234"/>
      <use xlink:href="#ArialMT-6f" x="789.355469"/>
      <use xlink:href="#ArialMT-75" x="844.970703"/>
      <use xlink:href="#ArialMT-72" x="900.585938"/>
      <use xlink:href="#ArialMT-5d" x="933.886719"/>
     </g>
    </g>
   </g>
   <g id="matplotlib.axis_2">
    <g id="ytick_1">
     <g id="line2d_15">
      <path d="M 83.2775 519.2725 
L 709.2 519.2725 
" clip-path="url(#p85a60f9fb8)" style="fill: none; stroke: #cccccc; stroke-width: 0.8; stroke-linecap: round"/>
     </g>
     <g id="line2d_16"/>
     <g id="text_9">
      <!-- −5000 -->
      <g style="fill: #262626" transform="translate(40.459375 524.282969) scale(0.14 -0.14)">
       <defs>
        <path id="ArialMT-2212" d="M 3381 1997 
L 356 1997 
L 356 2522 
L 3381 2522 
L 3381 1997 
z
" transform="scale(0.015625)"/>
        <path id="ArialMT-35" d="M 266 1200 
L 856 1250 
Q 922 819 1161 601 
Q 1400 384 1738 384 
Q 2144 384 2425 690 
Q 2706 997 2706 1503 
Q 2706 1984 2436 2262 
Q 2166 2541 1728 2541 
Q 1456 2541 1237 2417 
Q 1019 2294 894 2097 
L 366 2166 
L 809 4519 
L 3088 4519 
L 3088 3981 
L 1259 3981 
L 1013 2750 
Q 1425 3038 1878 3038 
Q 2478 3038 2890 2622 
Q 3303 2206 3303 1553 
Q 3303 931 2941 478 
Q 2500 -78 1738 -78 
Q 1113 -78 717 272 
Q 322 622 266 1200 
z
" transform="scale(0.015625)"/>
       </defs>
       <use xlink:href="#ArialMT-2212"/>
       <use xlink:href="#ArialMT-35" x="58.398438"/>
       <use xlink:href="#ArialMT-30" x="114.013672"/>
       <use xlink:href="#ArialMT-30" x="169.628906"/>
       <use xlink:href="#ArialMT-30" x="225.244141"/>
      </g>
     </g>
    </g>
    <g id="ytick_2">
     <g id="line2d_17">
      <path d="M 83.2775 451.342143 
L 709.2 451.342143 
" clip-path="url(#p85a60f9fb8)" style="fill: none; stroke: #cccccc; stroke-width: 0.8; stroke-linecap: round"/>
     </g>
     <g id="line2d_18"/>
     <g id="text_10">
      <!-- 0 -->
      <g style="fill: #262626" transform="translate(71.992188 456.352612) scale(0.14 -0.14)">
       <use xlink:href="#ArialMT-30"/>
      </g>
     </g>
    </g>
    <g id="ytick_3">
     <g id="line2d_19">
      <path d="M 83.2775 383.411786 
L 709.2 383.411786 
" clip-path="url(#p85a60f9fb8)" style="fill: none; stroke: #cccccc; stroke-width: 0.8; stroke-linecap: round"/>
     </g>
     <g id="line2d_20"/>
     <g id="text_11">
      <!-- 5000 -->
      <g style="fill: #262626" transform="translate(48.63625 388.422254) scale(0.14 -0.14)">
       <use xlink:href="#ArialMT-35"/>
       <use xlink:href="#ArialMT-30" x="55.615234"/>
       <use xlink:href="#ArialMT-30" x="111.230469"/>
       <use xlink:href="#ArialMT-30" x="166.845703"/>
      </g>
     </g>
    </g>
    <g id="ytick_4">
     <g id="line2d_21">
      <path d="M 83.2775 315.481429 
L 709.2 315.481429 
" clip-path="url(#p85a60f9fb8)" style="fill: none; stroke: #cccccc; stroke-width: 0.8; stroke-linecap: round"/>
     </g>
     <g id="line2d_22"/>
     <g id="text_12">
      <!-- 10000 -->
      <g style="fill: #262626" transform="translate(40.850938 320.491897) scale(0.14 -0.14)">
       <use xlink:href="#ArialMT-31"/>
       <use xlink:href="#ArialMT-30" x="55.615234"/>
       <use xlink:href="#ArialMT-30" x="111.230469"/>
       <use xlink:href="#ArialMT-30" x="166.845703"/>
       <use xlink:href="#ArialMT-30" x="222.460938"/>
      </g>
     </g>
    </g>
    <g id="ytick_5">
     <g id="line2d_23">
      <path d="M 83.2775 247.551071 
L 709.2 247.551071 
" clip-path="url(#p85a60f9fb8)" style="fill: none; stroke: #cccccc; stroke-width: 0.8; stroke-linecap: round"/>
     </g>
     <g id="line2d_24"/>
     <g id="text_13">
      <!-- 15000 -->
      <g style="fill: #262626" transform="translate(40.850938 252.56154) scale(0.14 -0.14)">
       <use xlink:href="#ArialMT-31"/>
       <use xlink:href="#ArialMT-35" x="55.615234"/>
       <use xlink:href="#ArialMT-30" x="111.230469"/>
       <use xlink:href="#ArialMT-30" x="166.845703"/>
       <use xlink:href="#ArialMT-30" x="222.460938"/>
      </g>
     </g>
    </g>
    <g id="ytick_6">
     <g id="line2d_25">
      <path d="M 83.2775 179.620714 
L 709.2 179.620714 
" clip-path="url(#p85a60f9fb8)" style="fill: none; stroke: #cccccc; stroke-width: 0.8; stroke-linecap: round"/>
     </g>
     <g id="line2d_26"/>
     <g id="text_14">
      <!-- 20000 -->
      <g style="fill: #262626" transform="translate(40.850938 184.631183) scale(0.14 -0.14)">
       <use xlink:href="#ArialMT-32"/>
       <use xlink:href="#ArialMT-30" x="55.615234"/>
       <use xlink:href="#ArialMT-30" x="111.230469"/>
       <use xlink:href="#ArialMT-30" x="166.845703"/>
       <use xlink:href="#ArialMT-30" x="222.460938"/>
      </g>
     </g>
    </g>
    <g id="ytick_7">
     <g id="line2d_27">
      <path d="M 83.2775 111.690357 
L 709.2 111.690357 
" clip-path="url(#p85a60f9fb8)" style="fill: none; stroke: #cccccc; stroke-width: 0.8; stroke-linecap: round"/>
     </g>
     <g id="line2d_28"/>
     <g id="text_15">
      <!-- 25000 -->
      <g style="fill: #262626" transform="translate(40.850938 116.700826) scale(0.14 -0.14)">
       <use xlink:href="#ArialMT-32"/>
       <use xlink:href="#ArialMT-35" x="55.615234"/>
       <use xlink:href="#ArialMT-30" x="111.230469"/>
       <use xlink:href="#ArialMT-30" x="166.845703"/>
       <use xlink:href="#ArialMT-30" x="222.460938"/>
      </g>
     </g>
    </g>
    <g id="ytick_8">
     <g id="line2d_29">
      <path d="M 83.2775 43.76 
L 709.2 43.76 
" clip-path="url(#p85a60f9fb8)" style="fill: none; stroke: #cccccc; stroke-width: 0.8; stroke-linecap: round"/>
     </g>
     <g id="line2d_30"/>
     <g id="text_16">
      <!-- 30000 -->
      <g style="fill: #262626" transform="translate(40.850938 48.770469) scale(0.14 -0.14)">
       <defs>
        <path id="ArialMT-33" d="M 269 1209 
L 831 1284 
Q 928 806 1161 595 
Q 1394 384 1728 384 
Q 2125 384 2398 659 
Q 2672 934 2672 1341 
Q 2672 1728 2419 1979 
Q 2166 2231 1775 2231 
Q 1616 2231 1378 2169 
L 1441 2663 
Q 1497 2656 1531 2656 
Q 1891 2656 2178 2843 
Q 2466 3031 2466 3422 
Q 2466 3731 2256 3934 
Q 2047 4138 1716 4138 
Q 1388 4138 1169 3931 
Q 950 3725 888 3313 
L 325 3413 
Q 428 3978 793 4289 
Q 1159 4600 1703 4600 
Q 2078 4600 2393 4439 
Q 2709 4278 2876 4000 
Q 3044 3722 3044 3409 
Q 3044 3113 2884 2869 
Q 2725 2625 2413 2481 
Q 2819 2388 3044 2092 
Q 3269 1797 3269 1353 
Q 3269 753 2831 336 
Q 2394 -81 1725 -81 
Q 1122 -81 723 278 
Q 325 638 269 1209 
z
" transform="scale(0.015625)"/>
       </defs>
       <use xlink:href="#ArialMT-33"/>
       <use xlink:href="#ArialMT-30" x="55.615234"/>
       <use xlink:href="#ArialMT-30" x="111.230469"/>
       <use xlink:href="#ArialMT-30" x="166.845703"/>
       <use xlink:href="#ArialMT-30" x="222.460938"/>
      </g>
     </g>
    </g>
    <g id="text_17">
     <!-- Δ Intensity [a.u.] -->
     <g style="fill: #262626" transform="translate(22.091875 338.44375) rotate(-90) scale(0.16 -0.16)">
      <defs>
       <path id="ArialMT-394" d="M -6 0 
L 1753 4581 
L 2406 4581 
L 4281 0 
L -6 0 
z
M 834 541 
L 3381 541 
L 2391 3150 
Q 2169 3738 2066 4100 
Q 1981 3675 1819 3225 
L 834 541 
z
" transform="scale(0.015625)"/>
       <path id="ArialMT-73" d="M 197 991 
L 753 1078 
Q 800 744 1014 566 
Q 1228 388 1613 388 
Q 2000 388 2187 545 
Q 2375 703 2375 916 
Q 2375 1106 2209 1216 
Q 2094 1291 1634 1406 
Q 1016 1563 777 1677 
Q 538 1791 414 1992 
Q 291 2194 291 2438 
Q 291 2659 392 2848 
Q 494 3038 669 3163 
Q 800 3259 1026 3326 
Q 1253 3394 1513 3394 
Q 1903 3394 2198 3281 
Q 2494 3169 2634 2976 
Q 2775 2784 2828 2463 
L 2278 2388 
Q 2241 2644 2061 2787 
Q 1881 2931 1553 2931 
Q 1166 2931 1000 2803 
Q 834 2675 834 2503 
Q 834 2394 903 2306 
Q 972 2216 1119 2156 
Q 1203 2125 1616 2013 
Q 2213 1853 2448 1751 
Q 2684 1650 2818 1456 
Q 2953 1263 2953 975 
Q 2953 694 2789 445 
Q 2625 197 2315 61 
Q 2006 -75 1616 -75 
Q 969 -75 630 194 
Q 291 463 197 991 
z
" transform="scale(0.015625)"/>
       <path id="ArialMT-79" d="M 397 -1278 
L 334 -750 
Q 519 -800 656 -800 
Q 844 -800 956 -737 
Q 1069 -675 1141 -563 
Q 1194 -478 1313 -144 
Q 1328 -97 1363 -6 
L 103 3319 
L 709 3319 
L 1400 1397 
Q 1534 1031 1641 628 
Q 1738 1016 1872 1384 
L 2581 3319 
L 3144 3319 
L 1881 -56 
Q 1678 -603 1566 -809 
Q 1416 -1088 1222 -1217 
Q 1028 -1347 759 -1347 
Q 597 -1347 397 -1278 
z
" transform="scale(0.015625)"/>
       <path id="ArialMT-2e" d="M 581 0 
L 581 641 
L 1222 641 
L 1222 0 
L 581 0 
z
" transform="scale(0.015625)"/>
      </defs>
      <use xlink:href="#ArialMT-394"/>
      <use xlink:href="#ArialMT-20" x="61.296875"/>
      <use xlink:href="#ArialMT-49" x="89.080078"/>
      <use xlink:href="#ArialMT-6e" x="116.863281"/>
      <use xlink:href="#ArialMT-74" x="172.478516"/>
      <use xlink:href="#ArialMT-65" x="200.261719"/>
      <use xlink:href="#ArialMT-6e" x="255.876953"/>
      <use xlink:href="#ArialMT-73" x="311.492188"/>
      <use xlink:href="#ArialMT-69" x="361.492188"/>
      <use xlink:href="#ArialMT-74" x="383.708984"/>
      <use xlink:href="#ArialMT-79" x="411.492188"/>
      <use xlink:href="#ArialMT-20" x="461.492188"/>
      <use xlink:href="#ArialMT-5b" x="489.275391"/>
      <use xlink:href="#ArialMT-61" x="517.058594"/>
      <use xlink:href="#ArialMT-2e" x="572.673828"/>
      <use xlink:href="#ArialMT-75" x="600.457031"/>
      <use xlink:href="#ArialMT-2e" x="656.072266"/>
      <use xlink:href="#ArialMT-5d" x="683.855469"/>
     </g>
    </g>
   </g>
   <g id="PolyCollection_1">
    <defs>
     <path id="m2e70608519" d="M 107.351442 -174.97 
L 107.351442 -126.112631 
L 131.425385 -127.515494 
L 155.499327 -129.341317 
L 179.573269 -130.661997 
L 203.647212 -131.630913 
L 227.721154 -132.903183 
L 251.795096 -133.138364 
L 275.869038 -134.115588 
L 299.942981 -134.734911 
L 324.016923 -135.267652 
L 348.090865 -135.864365 
L 372.164808 -135.877919 
L 396.23875 -136.594243 
L 420.312692 -136.591127 
L 444.386635 -136.825838 
L 468.460577 -137.145618 
L 492.534519 -138.006141 
L 516.608462 -139.005356 
L 540.682404 -140.942013 
L 564.756346 -143.051453 
L 588.830288 -144.457219 
L 612.904231 -144.904578 
L 636.978173 -143.458791 
L 661.052115 -140.776425 
L 685.126058 -137.276333 
L 685.126058 -191.785273 
L 685.126058 -191.785273 
L 661.052115 -179.444181 
L 636.978173 -170.607868 
L 612.904231 -165.882403 
L 588.830288 -163.204604 
L 564.756346 -162.584595 
L 540.682404 -163.080102 
L 516.608462 -164.003418 
L 492.534519 -165.30995 
L 468.460577 -166.628324 
L 444.386635 -167.800766 
L 420.312692 -168.77157 
L 396.23875 -170.174159 
L 372.164808 -171.099438 
L 348.090865 -172.240998 
L 324.016923 -173.226272 
L 299.942981 -174.063251 
L 275.869038 -174.9235 
L 251.795096 -175.931338 
L 227.721154 -176.843286 
L 203.647212 -177.21643 
L 179.573269 -177.704943 
L 155.499327 -177.642198 
L 131.425385 -176.372571 
L 107.351442 -174.97 
z
" style="stroke: #4b8b9e; stroke-opacity: 0.2"/>
    </defs>
    <g clip-path="url(#p85a60f9fb8)">
     <use xlink:href="#m2e70608519" x="0" y="576" style="fill: #4b8b9e; fill-opacity: 0.2; stroke: #4b8b9e; stroke-opacity: 0.2"/>
    </g>
   </g>
   <g id="PolyCollection_2">
    <defs>
     <path id="mcd82d6eec8" d="M 107.351442 -129.501645 
L 107.351442 -124.00338 
L 131.425385 -123.694782 
L 155.499327 -123.61657 
L 179.573269 -123.449051 
L 203.647212 -123.172335 
L 227.721154 -123.003646 
L 251.795096 -122.305529 
L 275.869038 -121.908703 
L 299.942981 -121.530169 
L 324.016923 -121.353396 
L 348.090865 -121.053183 
L 372.164808 -120.798297 
L 396.23875 -121.522619 
L 420.312692 -122.07778 
L 444.386635 -124.511915 
L 468.460577 -128.664935 
L 492.534519 -136.339286 
L 516.608462 -147.005736 
L 540.682404 -161.134356 
L 564.756346 -181.472731 
L 588.830288 -206.047479 
L 612.904231 -252.345403 
L 636.978173 -250.106351 
L 661.052115 -230.232365 
L 685.126058 -211.029087 
L 685.126058 -211.029087 
L 685.126058 -211.029087 
L 661.052115 -230.232365 
L 636.978173 -250.52098 
L 612.904231 -270.959799 
L 588.830288 -279.441074 
L 564.756346 -244.482563 
L 540.682404 -211.595601 
L 516.608462 -187.71619 
L 492.534519 -171.364653 
L 468.460577 -160.229088 
L 444.386635 -153.873554 
L 420.312692 -149.915352 
L 396.23875 -147.336568 
L 372.164808 -145.263156 
L 348.090865 -144.102442 
L 324.016923 -142.834085 
L 299.942981 -141.573324 
L 275.869038 -140.301823 
L 251.795096 -138.950349 
L 227.721154 -137.856787 
L 203.647212 -136.049165 
L 179.573269 -134.590461 
L 155.499327 -132.879202 
L 131.425385 -130.914338 
L 107.351442 -129.501645 
z
" style="stroke: #5fad98; stroke-opacity: 0.2"/>
    </defs>
    <g clip-path="url(#p85a60f9fb8)">
     <use xlink:href="#mcd82d6eec8" x="0" y="576" style="fill: #5fad98; fill-opacity: 0.2; stroke: #5fad98; stroke-opacity: 0.2"/>
    </g>
   </g>
   <g id="PolyCollection_3">
    <defs>
     <path id="m737b3efac9" d="M 107.351442 -128.537387 
L 107.351442 -118.620678 
L 131.425385 -116.601258 
L 155.499327 -114.82939 
L 179.573269 -113.234551 
L 203.647212 -111.46749 
L 227.721154 -109.160914 
L 251.795096 -105.197217 
L 275.869038 -101.805943 
L 299.942981 -98.74082 
L 324.016923 -95.715078 
L 348.090865 -92.498784 
L 372.164808 -89.530451 
L 396.23875 -87.027883 
L 420.312692 -84.421123 
L 444.386635 -82.879466 
L 468.460577 -82.088298 
L 492.534519 -83.455693 
L 516.608462 -87.164953 
L 540.682404 -95.822075 
L 564.756346 -109.152413 
L 588.830288 -127.948429 
L 612.904231 -150.717328 
L 636.978173 -173.688023 
L 661.052115 -200.914346 
L 685.126058 -210.784357 
L 685.126058 -211.094662 
L 685.126058 -211.094662 
L 661.052115 -238.088105 
L 636.978173 -270.99721 
L 612.904231 -302.521605 
L 588.830288 -303.029183 
L 564.756346 -237.941443 
L 540.682404 -184.458651 
L 516.608462 -149.137931 
L 492.534519 -127.812319 
L 468.460577 -115.371103 
L 444.386635 -108.416568 
L 420.312692 -104.877215 
L 396.23875 -103.725795 
L 372.164808 -103.210507 
L 348.090865 -103.798374 
L 324.016923 -104.700017 
L 299.942981 -105.657802 
L 275.869038 -106.865046 
L 251.795096 -108.288132 
L 227.721154 -110.132481 
L 203.647212 -112.848041 
L 179.573269 -116.893736 
L 155.499327 -121.097975 
L 131.425385 -125.098648 
L 107.351442 -128.537387 
z
" style="stroke: #d6a46a; stroke-opacity: 0.2"/>
    </defs>
    <g clip-path="url(#p85a60f9fb8)">
     <use xlink:href="#m737b3efac9" x="0" y="576" style="fill: #d6a46a; fill-opacity: 0.2; stroke: #d6a46a; stroke-opacity: 0.2"/>
    </g>
   </g>
   <g id="PolyCollection_4">
    <defs>
     <path id="md68c8e9308" d="M 107.351442 -113.351565 
L 107.351442 -105.53144 
L 131.425385 -100.62587 
L 155.499327 -95.333339 
L 179.573269 -90.155159 
L 203.647212 -84.922277 
L 227.721154 -80.311662 
L 251.795096 -75.511376 
L 275.869038 -71.137811 
L 299.942981 -67.133906 
L 324.016923 -63.680573 
L 348.090865 -60.997511 
L 372.164808 -59.745824 
L 396.23875 -61.587872 
L 420.312692 -68.268267 
L 444.386635 -84.071516 
L 468.460577 -114.933849 
L 492.534519 -168.865216 
L 516.608462 -255.093996 
L 540.682404 -335.35901 
L 564.756346 -314.357863 
L 588.830288 -292.451817 
L 612.904231 -271.112039 
L 636.978173 -250.433359 
L 661.052115 -230.232365 
L 685.126058 -211.029087 
L 685.126058 -211.029087 
L 685.126058 -211.029087 
L 661.052115 -230.232365 
L 636.978173 -250.433359 
L 612.904231 -271.112039 
L 588.830288 -292.451817 
L 564.756346 -314.357863 
L 540.682404 -337.144443 
L 516.608462 -375.636725 
L 492.534519 -281.274372 
L 468.460577 -208.330399 
L 444.386635 -160.819668 
L 420.312692 -134.217618 
L 396.23875 -120.517909 
L 372.164808 -113.144706 
L 348.090865 -110.017054 
L 324.016923 -108.798842 
L 299.942981 -108.592581 
L 275.869038 -108.83858 
L 251.795096 -109.620295 
L 227.721154 -110.537118 
L 203.647212 -110.936594 
L 179.573269 -111.70631 
L 155.499327 -112.265981 
L 131.425385 -112.773525 
L 107.351442 -113.351565 
z
" style="stroke: #c75d4b; stroke-opacity: 0.2"/>
    </defs>
    <g clip-path="url(#p85a60f9fb8)">
     <use xlink:href="#md68c8e9308" x="0" y="576" style="fill: #c75d4b; fill-opacity: 0.2; stroke: #c75d4b; stroke-opacity: 0.2"/>
    </g>
   </g>
   <g id="PolyCollection_5">
    <defs>
     <path id="m5b89af8765" d="M 107.351442 -99.923329 
L 107.351442 -98.283849 
L 131.425385 -93.261747 
L 155.499327 -88.658145 
L 179.573269 -84.101015 
L 203.647212 -79.663463 
L 227.721154 -75.850447 
L 251.795096 -71.784012 
L 275.869038 -68.21555 
L 299.942981 -65.287312 
L 324.016923 -63.263614 
L 348.090865 -63.011903 
L 372.164808 -66.138065 
L 396.23875 -76.312629 
L 420.312692 -98.978834 
L 444.386635 -142.292351 
L 468.460577 -220.74901 
L 492.534519 -326.557836 
L 516.608462 -359.209787 
L 540.682404 -336.767137 
L 564.756346 -314.357863 
L 588.830288 -292.451817 
L 612.904231 -271.112039 
L 636.978173 -250.433359 
L 661.052115 -230.232365 
L 685.126058 -211.029087 
L 685.126058 -211.029087 
L 685.126058 -211.029087 
L 661.052115 -230.232365 
L 636.978173 -250.433359 
L 612.904231 -271.112039 
L 588.830288 -292.451817 
L 564.756346 -314.357863 
L 540.682404 -336.767137 
L 516.608462 -359.209787 
L 492.534519 -351.151618 
L 468.460577 -227.399493 
L 444.386635 -149.310735 
L 420.312692 -105.183753 
L 396.23875 -82.582979 
L 372.164808 -72.033622 
L 348.090865 -68.450619 
L 324.016923 -68.315296 
L 299.942981 -69.9525 
L 275.869038 -72.428349 
L 251.795096 -75.743949 
L 227.721154 -79.192786 
L 203.647212 -82.671776 
L 179.573269 -86.681863 
L 155.499327 -90.758047 
L 131.425385 -95.000427 
L 107.351442 -99.923329 
z
" style="stroke: #a52a2a; stroke-opacity: 0.2"/>
    </defs>
    <g clip-path="url(#p85a60f9fb8)">
     <use xlink:href="#m5b89af8765" x="0" y="576" style="fill: #a52a2a; fill-opacity: 0.2; stroke: #a52a2a; stroke-opacity: 0.2"/>
    </g>
   </g>
   <g id="line2d_31">
    <path d="M 83.2775 396.997857 
L 709.2 396.997857 
" clip-path="url(#p85a60f9fb8)" style="fill: none; stroke-dasharray: 5.55,2.4; stroke-dashoffset: 0; stroke: #000000; stroke-width: 1.5"/>
   </g>
   <g id="line2d_32">
    <path d="M 107.351442 425.458684 
L 131.425385 424.055968 
L 155.499327 422.508242 
L 179.573269 421.81653 
L 203.647212 421.576328 
L 227.721154 421.126765 
L 251.795096 421.465149 
L 275.869038 421.480456 
L 299.942981 421.600919 
L 324.016923 421.753038 
L 348.090865 421.947319 
L 372.164808 422.511322 
L 396.23875 422.615799 
L 420.312692 423.318651 
L 444.386635 423.686698 
L 468.460577 424.113029 
L 492.534519 424.341954 
L 516.608462 424.495613 
L 540.682404 423.988943 
L 564.756346 423.181976 
L 588.830288 422.169089 
L 612.904231 420.606509 
L 636.978173 418.966671 
L 661.052115 415.889697 
L 685.126058 411.469197 
" clip-path="url(#p85a60f9fb8)" style="fill: none; stroke: #4b8b9e; stroke-width: 1.5; stroke-linecap: round"/>
    <defs>
     <path id="m39f008a538" d="M 0 3 
C 0.795609 3 1.55874 2.683901 2.12132 2.12132 
C 2.683901 1.55874 3 0.795609 3 0 
C 3 -0.795609 2.683901 -1.55874 2.12132 -2.12132 
C 1.55874 -2.683901 0.795609 -3 0 -3 
C -0.795609 -3 -1.55874 -2.683901 -2.12132 -2.12132 
C -2.683901 -1.55874 -3 -0.795609 -3 0 
C -3 0.795609 -2.683901 1.55874 -2.12132 2.12132 
C -1.55874 2.683901 -0.795609 3 0 3 
z
" style="stroke: #4b8b9e"/>
    </defs>
    <g clip-path="url(#p85a60f9fb8)">
     <use xlink:href="#m39f008a538" x="107.351442" y="425.458684" style="fill: #4b8b9e; stroke: #4b8b9e"/>
     <use xlink:href="#m39f008a538" x="131.425385" y="424.055968" style="fill: #4b8b9e; stroke: #4b8b9e"/>
     <use xlink:href="#m39f008a538" x="155.499327" y="422.508242" style="fill: #4b8b9e; stroke: #4b8b9e"/>
     <use xlink:href="#m39f008a538" x="179.573269" y="421.81653" style="fill: #4b8b9e; stroke: #4b8b9e"/>
     <use xlink:href="#m39f008a538" x="203.647212" y="421.576328" style="fill: #4b8b9e; stroke: #4b8b9e"/>
     <use xlink:href="#m39f008a538" x="227.721154" y="421.126765" style="fill: #4b8b9e; stroke: #4b8b9e"/>
     <use xlink:href="#m39f008a538" x="251.795096" y="421.465149" style="fill: #4b8b9e; stroke: #4b8b9e"/>
     <use xlink:href="#m39f008a538" x="275.869038" y="421.480456" style="fill: #4b8b9e; stroke: #4b8b9e"/>
     <use xlink:href="#m39f008a538" x="299.942981" y="421.600919" style="fill: #4b8b9e; stroke: #4b8b9e"/>
     <use xlink:href="#m39f008a538" x="324.016923" y="421.753038" style="fill: #4b8b9e; stroke: #4b8b9e"/>
     <use xlink:href="#m39f008a538" x="348.090865" y="421.947319" style="fill: #4b8b9e; stroke: #4b8b9e"/>
     <use xlink:href="#m39f008a538" x="372.164808" y="422.511322" style="fill: #4b8b9e; stroke: #4b8b9e"/>
     <use xlink:href="#m39f008a538" x="396.23875" y="422.615799" style="fill: #4b8b9e; stroke: #4b8b9e"/>
     <use xlink:href="#m39f008a538" x="420.312692" y="423.318651" style="fill: #4b8b9e; stroke: #4b8b9e"/>
     <use xlink:href="#m39f008a538" x="444.386635" y="423.686698" style="fill: #4b8b9e; stroke: #4b8b9e"/>
     <use xlink:href="#m39f008a538" x="468.460577" y="424.113029" style="fill: #4b8b9e; stroke: #4b8b9e"/>
     <use xlink:href="#m39f008a538" x="492.534519" y="424.341954" style="fill: #4b8b9e; stroke: #4b8b9e"/>
     <use xlink:href="#m39f008a538" x="516.608462" y="424.495613" style="fill: #4b8b9e; stroke: #4b8b9e"/>
     <use xlink:href="#m39f008a538" x="540.682404" y="423.988943" style="fill: #4b8b9e; stroke: #4b8b9e"/>
     <use xlink:href="#m39f008a538" x="564.756346" y="423.181976" style="fill: #4b8b9e; stroke: #4b8b9e"/>
     <use xlink:href="#m39f008a538" x="588.830288" y="422.169089" style="fill: #4b8b9e; stroke: #4b8b9e"/>
     <use xlink:href="#m39f008a538" x="612.904231" y="420.606509" style="fill: #4b8b9e; stroke: #4b8b9e"/>
     <use xlink:href="#m39f008a538" x="636.978173" y="418.966671" style="fill: #4b8b9e; stroke: #4b8b9e"/>
     <use xlink:href="#m39f008a538" x="661.052115" y="415.889697" style="fill: #4b8b9e; stroke: #4b8b9e"/>
     <use xlink:href="#m39f008a538" x="685.126058" y="411.469197" style="fill: #4b8b9e; stroke: #4b8b9e"/>
    </g>
   </g>
   <g id="line2d_33">
    <path d="M 107.351442 449.247488 
L 131.425385 448.69544 
L 155.499327 447.752114 
L 179.573269 446.980244 
L 203.647212 446.38925 
L 227.721154 445.569783 
L 251.795096 445.372061 
L 275.869038 444.894737 
L 299.942981 444.448253 
L 324.016923 443.90626 
L 348.090865 443.422188 
L 372.164808 442.969273 
L 396.23875 441.570406 
L 420.312692 440.003434 
L 444.386635 436.807265 
L 468.460577 431.552988 
L 492.534519 422.14803 
L 516.608462 408.639037 
L 540.682404 389.635022 
L 564.756346 363.022353 
L 588.830288 333.255724 
L 612.904231 314.347399 
L 636.978173 325.686334 
L 661.052115 345.767635 
L 685.126058 364.970913 
" clip-path="url(#p85a60f9fb8)" style="fill: none; stroke: #5fad98; stroke-width: 1.5; stroke-linecap: round"/>
    <defs>
     <path id="m0937d838f7" d="M 0 3 
C 0.795609 3 1.55874 2.683901 2.12132 2.12132 
C 2.683901 1.55874 3 0.795609 3 0 
C 3 -0.795609 2.683901 -1.55874 2.12132 -2.12132 
C 1.55874 -2.683901 0.795609 -3 0 -3 
C -0.795609 -3 -1.55874 -2.683901 -2.12132 -2.12132 
C -2.683901 -1.55874 -3 -0.795609 -3 0 
C -3 0.795609 -2.683901 1.55874 -2.12132 2.12132 
C -1.55874 2.683901 -0.795609 3 0 3 
z
" style="stroke: #5fad98"/>
    </defs>
    <g clip-path="url(#p85a60f9fb8)">
     <use xlink:href="#m0937d838f7" x="107.351442" y="449.247488" style="fill: #5fad98; stroke: #5fad98"/>
     <use xlink:href="#m0937d838f7" x="131.425385" y="448.69544" style="fill: #5fad98; stroke: #5fad98"/>
     <use xlink:href="#m0937d838f7" x="155.499327" y="447.752114" style="fill: #5fad98; stroke: #5fad98"/>
     <use xlink:href="#m0937d838f7" x="179.573269" y="446.980244" style="fill: #5fad98; stroke: #5fad98"/>
     <use xlink:href="#m0937d838f7" x="203.647212" y="446.38925" style="fill: #5fad98; stroke: #5fad98"/>
     <use xlink:href="#m0937d838f7" x="227.721154" y="445.569783" style="fill: #5fad98; stroke: #5fad98"/>
     <use xlink:href="#m0937d838f7" x="251.795096" y="445.372061" style="fill: #5fad98; stroke: #5fad98"/>
     <use xlink:href="#m0937d838f7" x="275.869038" y="444.894737" style="fill: #5fad98; stroke: #5fad98"/>
     <use xlink:href="#m0937d838f7" x="299.942981" y="444.448253" style="fill: #5fad98; stroke: #5fad98"/>
     <use xlink:href="#m0937d838f7" x="324.016923" y="443.90626" style="fill: #5fad98; stroke: #5fad98"/>
     <use xlink:href="#m0937d838f7" x="348.090865" y="443.422188" style="fill: #5fad98; stroke: #5fad98"/>
     <use xlink:href="#m0937d838f7" x="372.164808" y="442.969273" style="fill: #5fad98; stroke: #5fad98"/>
     <use xlink:href="#m0937d838f7" x="396.23875" y="441.570406" style="fill: #5fad98; stroke: #5fad98"/>
     <use xlink:href="#m0937d838f7" x="420.312692" y="440.003434" style="fill: #5fad98; stroke: #5fad98"/>
     <use xlink:href="#m0937d838f7" x="444.386635" y="436.807265" style="fill: #5fad98; stroke: #5fad98"/>
     <use xlink:href="#m0937d838f7" x="468.460577" y="431.552988" style="fill: #5fad98; stroke: #5fad98"/>
     <use xlink:href="#m0937d838f7" x="492.534519" y="422.14803" style="fill: #5fad98; stroke: #5fad98"/>
     <use xlink:href="#m0937d838f7" x="516.608462" y="408.639037" style="fill: #5fad98; stroke: #5fad98"/>
     <use xlink:href="#m0937d838f7" x="540.682404" y="389.635022" style="fill: #5fad98; stroke: #5fad98"/>
     <use xlink:href="#m0937d838f7" x="564.756346" y="363.022353" style="fill: #5fad98; stroke: #5fad98"/>
     <use xlink:href="#m0937d838f7" x="588.830288" y="333.255724" style="fill: #5fad98; stroke: #5fad98"/>
     <use xlink:href="#m0937d838f7" x="612.904231" y="314.347399" style="fill: #5fad98; stroke: #5fad98"/>
     <use xlink:href="#m0937d838f7" x="636.978173" y="325.686334" style="fill: #5fad98; stroke: #5fad98"/>
     <use xlink:href="#m0937d838f7" x="661.052115" y="345.767635" style="fill: #5fad98; stroke: #5fad98"/>
     <use xlink:href="#m0937d838f7" x="685.126058" y="364.970913" style="fill: #5fad98; stroke: #5fad98"/>
    </g>
   </g>
   <g id="line2d_34">
    <path d="M 107.351442 452.420968 
L 131.425385 455.150047 
L 155.499327 458.036317 
L 179.573269 460.935857 
L 203.647212 463.842234 
L 227.721154 466.353303 
L 251.795096 469.257325 
L 275.869038 471.664506 
L 299.942981 473.800689 
L 324.016923 475.792452 
L 348.090865 477.851421 
L 372.164808 479.629521 
L 396.23875 480.623161 
L 420.312692 481.350831 
L 444.386635 480.351983 
L 468.460577 477.2703 
L 492.534519 470.365994 
L 516.608462 457.848558 
L 540.682404 435.859637 
L 564.756346 402.453072 
L 588.830288 360.511194 
L 612.904231 349.380534 
L 636.978173 353.657384 
L 661.052115 356.498775 
L 685.126058 365.06049 
" clip-path="url(#p85a60f9fb8)" style="fill: none; stroke: #d6a46a; stroke-width: 1.5; stroke-linecap: round"/>
    <defs>
     <path id="m613b3a0d51" d="M 0 3 
C 0.795609 3 1.55874 2.683901 2.12132 2.12132 
C 2.683901 1.55874 3 0.795609 3 0 
C 3 -0.795609 2.683901 -1.55874 2.12132 -2.12132 
C 1.55874 -2.683901 0.795609 -3 0 -3 
C -0.795609 -3 -1.55874 -2.683901 -2.12132 -2.12132 
C -2.683901 -1.55874 -3 -0.795609 -3 0 
C -3 0.795609 -2.683901 1.55874 -2.12132 2.12132 
C -1.55874 2.683901 -0.795609 3 0 3 
z
" style="stroke: #d6a46a"/>
    </defs>
    <g clip-path="url(#p85a60f9fb8)">
     <use xlink:href="#m613b3a0d51" x="107.351442" y="452.420968" style="fill: #d6a46a; stroke: #d6a46a"/>
     <use xlink:href="#m613b3a0d51" x="131.425385" y="455.150047" style="fill: #d6a46a; stroke: #d6a46a"/>
     <use xlink:href="#m613b3a0d51" x="155.499327" y="458.036317" style="fill: #d6a46a; stroke: #d6a46a"/>
     <use xlink:href="#m613b3a0d51" x="179.573269" y="460.935857" style="fill: #d6a46a; stroke: #d6a46a"/>
     <use xlink:href="#m613b3a0d51" x="203.647212" y="463.842234" style="fill: #d6a46a; stroke: #d6a46a"/>
     <use xlink:href="#m613b3a0d51" x="227.721154" y="466.353303" style="fill: #d6a46a; stroke: #d6a46a"/>
     <use xlink:href="#m613b3a0d51" x="251.795096" y="469.257325" style="fill: #d6a46a; stroke: #d6a46a"/>
     <use xlink:href="#m613b3a0d51" x="275.869038" y="471.664506" style="fill: #d6a46a; stroke: #d6a46a"/>
     <use xlink:href="#m613b3a0d51" x="299.942981" y="473.800689" style="fill: #d6a46a; stroke: #d6a46a"/>
     <use xlink:href="#m613b3a0d51" x="324.016923" y="475.792452" style="fill: #d6a46a; stroke: #d6a46a"/>
     <use xlink:href="#m613b3a0d51" x="348.090865" y="477.851421" style="fill: #d6a46a; stroke: #d6a46a"/>
     <use xlink:href="#m613b3a0d51" x="372.164808" y="479.629521" style="fill: #d6a46a; stroke: #d6a46a"/>
     <use xlink:href="#m613b3a0d51" x="396.23875" y="480.623161" style="fill: #d6a46a; stroke: #d6a46a"/>
     <use xlink:href="#m613b3a0d51" x="420.312692" y="481.350831" style="fill: #d6a46a; stroke: #d6a46a"/>
     <use xlink:href="#m613b3a0d51" x="444.386635" y="480.351983" style="fill: #d6a46a; stroke: #d6a46a"/>
     <use xlink:href="#m613b3a0d51" x="468.460577" y="477.2703" style="fill: #d6a46a; stroke: #d6a46a"/>
     <use xlink:href="#m613b3a0d51" x="492.534519" y="470.365994" style="fill: #d6a46a; stroke: #d6a46a"/>
     <use xlink:href="#m613b3a0d51" x="516.608462" y="457.848558" style="fill: #d6a46a; stroke: #d6a46a"/>
     <use xlink:href="#m613b3a0d51" x="540.682404" y="435.859637" style="fill: #d6a46a; stroke: #d6a46a"/>
     <use xlink:href="#m613b3a0d51" x="564.756346" y="402.453072" style="fill: #d6a46a; stroke: #d6a46a"/>
     <use xlink:href="#m613b3a0d51" x="588.830288" y="360.511194" style="fill: #d6a46a; stroke: #d6a46a"/>
     <use xlink:href="#m613b3a0d51" x="612.904231" y="349.380534" style="fill: #d6a46a; stroke: #d6a46a"/>
     <use xlink:href="#m613b3a0d51" x="636.978173" y="353.657384" style="fill: #d6a46a; stroke: #d6a46a"/>
     <use xlink:href="#m613b3a0d51" x="661.052115" y="356.498775" style="fill: #d6a46a; stroke: #d6a46a"/>
     <use xlink:href="#m613b3a0d51" x="685.126058" y="365.06049" style="fill: #d6a46a; stroke: #d6a46a"/>
    </g>
   </g>
   <g id="line2d_35">
    <path d="M 107.351442 466.558498 
L 131.425385 469.300303 
L 155.499327 472.20034 
L 179.573269 475.069266 
L 203.647212 478.070565 
L 227.721154 480.57561 
L 251.795096 483.434164 
L 275.869038 486.011805 
L 299.942981 488.136757 
L 324.016923 489.760292 
L 348.090865 490.492717 
L 372.164808 489.554735 
L 396.23875 484.947109 
L 420.312692 474.757058 
L 444.386635 453.554408 
L 468.460577 414.367876 
L 492.534519 350.930206 
L 516.608462 260.634639 
L 540.682404 239.748274 
L 564.756346 261.642137 
L 588.830288 283.548183 
L 612.904231 304.887961 
L 636.978173 325.566641 
L 661.052115 345.767635 
L 685.126058 364.970913 
" clip-path="url(#p85a60f9fb8)" style="fill: none; stroke: #c75d4b; stroke-width: 1.5; stroke-linecap: round"/>
    <defs>
     <path id="m3e0fd7ae5c" d="M 0 3 
C 0.795609 3 1.55874 2.683901 2.12132 2.12132 
C 2.683901 1.55874 3 0.795609 3 0 
C 3 -0.795609 2.683901 -1.55874 2.12132 -2.12132 
C 1.55874 -2.683901 0.795609 -3 0 -3 
C -0.795609 -3 -1.55874 -2.683901 -2.12132 -2.12132 
C -2.683901 -1.55874 -3 -0.795609 -3 0 
C -3 0.795609 -2.683901 1.55874 -2.12132 2.12132 
C -1.55874 2.683901 -0.795609 3 0 3 
z
" style="stroke: #c75d4b"/>
    </defs>
    <g clip-path="url(#p85a60f9fb8)">
     <use xlink:href="#m3e0fd7ae5c" x="107.351442" y="466.558498" style="fill: #c75d4b; stroke: #c75d4b"/>
     <use xlink:href="#m3e0fd7ae5c" x="131.425385" y="469.300303" style="fill: #c75d4b; stroke: #c75d4b"/>
     <use xlink:href="#m3e0fd7ae5c" x="155.499327" y="472.20034" style="fill: #c75d4b; stroke: #c75d4b"/>
     <use xlink:href="#m3e0fd7ae5c" x="179.573269" y="475.069266" style="fill: #c75d4b; stroke: #c75d4b"/>
     <use xlink:href="#m3e0fd7ae5c" x="203.647212" y="478.070565" style="fill: #c75d4b; stroke: #c75d4b"/>
     <use xlink:href="#m3e0fd7ae5c" x="227.721154" y="480.57561" style="fill: #c75d4b; stroke: #c75d4b"/>
     <use xlink:href="#m3e0fd7ae5c" x="251.795096" y="483.434164" style="fill: #c75d4b; stroke: #c75d4b"/>
     <use xlink:href="#m3e0fd7ae5c" x="275.869038" y="486.011805" style="fill: #c75d4b; stroke: #c75d4b"/>
     <use xlink:href="#m3e0fd7ae5c" x="299.942981" y="488.136757" style="fill: #c75d4b; stroke: #c75d4b"/>
     <use xlink:href="#m3e0fd7ae5c" x="324.016923" y="489.760292" style="fill: #c75d4b; stroke: #c75d4b"/>
     <use xlink:href="#m3e0fd7ae5c" x="348.090865" y="490.492717" style="fill: #c75d4b; stroke: #c75d4b"/>
     <use xlink:href="#m3e0fd7ae5c" x="372.164808" y="489.554735" style="fill: #c75d4b; stroke: #c75d4b"/>
     <use xlink:href="#m3e0fd7ae5c" x="396.23875" y="484.947109" style="fill: #c75d4b; stroke: #c75d4b"/>
     <use xlink:href="#m3e0fd7ae5c" x="420.312692" y="474.757058" style="fill: #c75d4b; stroke: #c75d4b"/>
     <use xlink:href="#m3e0fd7ae5c" x="444.386635" y="453.554408" style="fill: #c75d4b; stroke: #c75d4b"/>
     <use xlink:href="#m3e0fd7ae5c" x="468.460577" y="414.367876" style="fill: #c75d4b; stroke: #c75d4b"/>
     <use xlink:href="#m3e0fd7ae5c" x="492.534519" y="350.930206" style="fill: #c75d4b; stroke: #c75d4b"/>
     <use xlink:href="#m3e0fd7ae5c" x="516.608462" y="260.634639" style="fill: #c75d4b; stroke: #c75d4b"/>
     <use xlink:href="#m3e0fd7ae5c" x="540.682404" y="239.748274" style="fill: #c75d4b; stroke: #c75d4b"/>
     <use xlink:href="#m3e0fd7ae5c" x="564.756346" y="261.642137" style="fill: #c75d4b; stroke: #c75d4b"/>
     <use xlink:href="#m3e0fd7ae5c" x="588.830288" y="283.548183" style="fill: #c75d4b; stroke: #c75d4b"/>
     <use xlink:href="#m3e0fd7ae5c" x="612.904231" y="304.887961" style="fill: #c75d4b; stroke: #c75d4b"/>
     <use xlink:href="#m3e0fd7ae5c" x="636.978173" y="325.566641" style="fill: #c75d4b; stroke: #c75d4b"/>
     <use xlink:href="#m3e0fd7ae5c" x="661.052115" y="345.767635" style="fill: #c75d4b; stroke: #c75d4b"/>
     <use xlink:href="#m3e0fd7ae5c" x="685.126058" y="364.970913" style="fill: #c75d4b; stroke: #c75d4b"/>
    </g>
   </g>
   <g id="line2d_36">
    <path d="M 107.351442 476.896411 
L 131.425385 481.868913 
L 155.499327 486.291904 
L 179.573269 490.608561 
L 203.647212 494.83238 
L 227.721154 498.478384 
L 251.795096 502.236019 
L 275.869038 505.67805 
L 299.942981 508.380094 
L 324.016923 510.210545 
L 348.090865 510.268739 
L 372.164808 506.914157 
L 396.23875 496.552196 
L 420.312692 473.918706 
L 444.386635 430.198457 
L 468.460577 351.925748 
L 492.534519 237.145273 
L 516.608462 216.790213 
L 540.682404 239.232863 
L 564.756346 261.642137 
L 588.830288 283.548183 
L 612.904231 304.887961 
L 636.978173 325.566641 
L 661.052115 345.767635 
L 685.126058 364.970913 
" clip-path="url(#p85a60f9fb8)" style="fill: none; stroke: #a52a2a; stroke-width: 1.5; stroke-linecap: round"/>
    <defs>
     <path id="m4bfbad868e" d="M 0 3 
C 0.795609 3 1.55874 2.683901 2.12132 2.12132 
C 2.683901 1.55874 3 0.795609 3 0 
C 3 -0.795609 2.683901 -1.55874 2.12132 -2.12132 
C 1.55874 -2.683901 0.795609 -3 0 -3 
C -0.795609 -3 -1.55874 -2.683901 -2.12132 -2.12132 
C -2.683901 -1.55874 -3 -0.795609 -3 0 
C -3 0.795609 -2.683901 1.55874 -2.12132 2.12132 
C -1.55874 2.683901 -0.795609 3 0 3 
z
" style="stroke: #a52a2a"/>
    </defs>
    <g clip-path="url(#p85a60f9fb8)">
     <use xlink:href="#m4bfbad868e" x="107.351442" y="476.896411" style="fill: #a52a2a; stroke: #a52a2a"/>
     <use xlink:href="#m4bfbad868e" x="131.425385" y="481.868913" style="fill: #a52a2a; stroke: #a52a2a"/>
     <use xlink:href="#m4bfbad868e" x="155.499327" y="486.291904" style="fill: #a52a2a; stroke: #a52a2a"/>
     <use xlink:href="#m4bfbad868e" x="179.573269" y="490.608561" style="fill: #a52a2a; stroke: #a52a2a"/>
     <use xlink:href="#m4bfbad868e" x="203.647212" y="494.83238" style="fill: #a52a2a; stroke: #a52a2a"/>
     <use xlink:href="#m4bfbad868e" x="227.721154" y="498.478384" style="fill: #a52a2a; stroke: #a52a2a"/>
     <use xlink:href="#m4bfbad868e" x="251.795096" y="502.236019" style="fill: #a52a2a; stroke: #a52a2a"/>
     <use xlink:href="#m4bfbad868e" x="275.869038" y="505.67805" style="fill: #a52a2a; stroke: #a52a2a"/>
     <use xlink:href="#m4bfbad868e" x="299.942981" y="508.380094" style="fill: #a52a2a; stroke: #a52a2a"/>
     <use xlink:href="#m4bfbad868e" x="324.016923" y="510.210545" style="fill: #a52a2a; stroke: #a52a2a"/>
     <use xlink:href="#m4bfbad868e" x="348.090865" y="510.268739" style="fill: #a52a2a; stroke: #a52a2a"/>
     <use xlink:href="#m4bfbad868e" x="372.164808" y="506.914157" style="fill: #a52a2a; stroke: #a52a2a"/>
     <use xlink:href="#m4bfbad868e" x="396.23875" y="496.552196" style="fill: #a52a2a; stroke: #a52a2a"/>
     <use xlink:href="#m4bfbad868e" x="420.312692" y="473.918706" style="fill: #a52a2a; stroke: #a52a2a"/>
     <use xlink:href="#m4bfbad868e" x="444.386635" y="430.198457" style="fill: #a52a2a; stroke: #a52a2a"/>
     <use xlink:href="#m4bfbad868e" x="468.460577" y="351.925748" style="fill: #a52a2a; stroke: #a52a2a"/>
     <use xlink:href="#m4bfbad868e" x="492.534519" y="237.145273" style="fill: #a52a2a; stroke: #a52a2a"/>
     <use xlink:href="#m4bfbad868e" x="516.608462" y="216.790213" style="fill: #a52a2a; stroke: #a52a2a"/>
     <use xlink:href="#m4bfbad868e" x="540.682404" y="239.232863" style="fill: #a52a2a; stroke: #a52a2a"/>
     <use xlink:href="#m4bfbad868e" x="564.756346" y="261.642137" style="fill: #a52a2a; stroke: #a52a2a"/>
     <use xlink:href="#m4bfbad868e" x="588.830288" y="283.548183" style="fill: #a52a2a; stroke: #a52a2a"/>
     <use xlink:href="#m4bfbad868e" x="612.904231" y="304.887961" style="fill: #a52a2a; stroke: #a52a2a"/>
     <use xlink:href="#m4bfbad868e" x="636.978173" y="325.566641" style="fill: #a52a2a; stroke: #a52a2a"/>
     <use xlink:href="#m4bfbad868e" x="661.052115" y="345.767635" style="fill: #a52a2a; stroke: #a52a2a"/>
     <use xlink:href="#m4bfbad868e" x="685.126058" y="364.970913" style="fill: #a52a2a; stroke: #a52a2a"/>
    </g>
   </g>
   <g id="patch_3">
    <path d="M 83.2775 519.2725 
L 83.2775 43.76 
" style="fill: none; stroke: #cccccc; stroke-linejoin: miter; stroke-linecap: square"/>
   </g>
   <g id="patch_4">
    <path d="M 83.2775 519.2725 
L 709.2 519.2725 
" style="fill: none; stroke: #cccccc; stroke-linejoin: miter; stroke-linecap: square"/>
   </g>
   <g id="text_18">
    <!-- Threshold -->
    <g style="fill: #262626" transform="translate(88.092288 387.040848) scale(0.14 -0.14)">
     <defs>
      <path id="Arial-BoldMT-54" d="M 1497 0 
L 1497 3806 
L 138 3806 
L 138 4581 
L 3778 4581 
L 3778 3806 
L 2422 3806 
L 2422 0 
L 1497 0 
z
" transform="scale(0.015625)"/>
      <path id="Arial-BoldMT-68" d="M 1334 4581 
L 1334 2897 
Q 1759 3394 2350 3394 
Q 2653 3394 2897 3281 
Q 3141 3169 3264 2994 
Q 3388 2819 3433 2606 
Q 3478 2394 3478 1947 
L 3478 0 
L 2600 0 
L 2600 1753 
Q 2600 2275 2550 2415 
Q 2500 2556 2373 2639 
Q 2247 2722 2056 2722 
Q 1838 2722 1666 2615 
Q 1494 2509 1414 2295 
Q 1334 2081 1334 1663 
L 1334 0 
L 456 0 
L 456 4581 
L 1334 4581 
z
" transform="scale(0.015625)"/>
      <path id="Arial-BoldMT-72" d="M 1300 0 
L 422 0 
L 422 3319 
L 1238 3319 
L 1238 2847 
Q 1447 3181 1614 3287 
Q 1781 3394 1994 3394 
Q 2294 3394 2572 3228 
L 2300 2463 
Q 2078 2606 1888 2606 
Q 1703 2606 1575 2504 
Q 1447 2403 1373 2137 
Q 1300 1872 1300 1025 
L 1300 0 
z
" transform="scale(0.015625)"/>
      <path id="Arial-BoldMT-65" d="M 2381 1056 
L 3256 909 
Q 3088 428 2723 176 
Q 2359 -75 1813 -75 
Q 947 -75 531 491 
Q 203 944 203 1634 
Q 203 2459 634 2926 
Q 1066 3394 1725 3394 
Q 2466 3394 2894 2905 
Q 3322 2416 3303 1406 
L 1103 1406 
Q 1113 1016 1316 798 
Q 1519 581 1822 581 
Q 2028 581 2168 693 
Q 2309 806 2381 1056 
z
M 2431 1944 
Q 2422 2325 2234 2523 
Q 2047 2722 1778 2722 
Q 1491 2722 1303 2513 
Q 1116 2303 1119 1944 
L 2431 1944 
z
" transform="scale(0.015625)"/>
      <path id="Arial-BoldMT-73" d="M 150 947 
L 1031 1081 
Q 1088 825 1259 692 
Q 1431 559 1741 559 
Q 2081 559 2253 684 
Q 2369 772 2369 919 
Q 2369 1019 2306 1084 
Q 2241 1147 2013 1200 
Q 950 1434 666 1628 
Q 272 1897 272 2375 
Q 272 2806 612 3100 
Q 953 3394 1669 3394 
Q 2350 3394 2681 3172 
Q 3013 2950 3138 2516 
L 2309 2363 
Q 2256 2556 2107 2659 
Q 1959 2763 1684 2763 
Q 1338 2763 1188 2666 
Q 1088 2597 1088 2488 
Q 1088 2394 1175 2328 
Q 1294 2241 1995 2081 
Q 2697 1922 2975 1691 
Q 3250 1456 3250 1038 
Q 3250 581 2869 253 
Q 2488 -75 1741 -75 
Q 1063 -75 667 200 
Q 272 475 150 947 
z
" transform="scale(0.015625)"/>
      <path id="Arial-BoldMT-6f" d="M 256 1706 
Q 256 2144 472 2553 
Q 688 2963 1083 3178 
Q 1478 3394 1966 3394 
Q 2719 3394 3200 2905 
Q 3681 2416 3681 1669 
Q 3681 916 3195 420 
Q 2709 -75 1972 -75 
Q 1516 -75 1102 131 
Q 688 338 472 736 
Q 256 1134 256 1706 
z
M 1156 1659 
Q 1156 1166 1390 903 
Q 1625 641 1969 641 
Q 2313 641 2545 903 
Q 2778 1166 2778 1666 
Q 2778 2153 2545 2415 
Q 2313 2678 1969 2678 
Q 1625 2678 1390 2415 
Q 1156 2153 1156 1659 
z
" transform="scale(0.015625)"/>
      <path id="Arial-BoldMT-6c" d="M 459 0 
L 459 4581 
L 1338 4581 
L 1338 0 
L 459 0 
z
" transform="scale(0.015625)"/>
      <path id="Arial-BoldMT-64" d="M 3503 0 
L 2688 0 
L 2688 488 
Q 2484 203 2207 64 
Q 1931 -75 1650 -75 
Q 1078 -75 670 386 
Q 263 847 263 1672 
Q 263 2516 659 2955 
Q 1056 3394 1663 3394 
Q 2219 3394 2625 2931 
L 2625 4581 
L 3503 4581 
L 3503 0 
z
M 1159 1731 
Q 1159 1200 1306 963 
Q 1519 619 1900 619 
Q 2203 619 2415 876 
Q 2628 1134 2628 1647 
Q 2628 2219 2422 2470 
Q 2216 2722 1894 2722 
Q 1581 2722 1370 2473 
Q 1159 2225 1159 1731 
z
" transform="scale(0.015625)"/>
     </defs>
     <use xlink:href="#Arial-BoldMT-54"/>
     <use xlink:href="#Arial-BoldMT-68" x="61.083984"/>
     <use xlink:href="#Arial-BoldMT-72" x="122.167969"/>
     <use xlink:href="#Arial-BoldMT-65" x="161.083984"/>
     <use xlink:href="#Arial-BoldMT-73" x="216.699219"/>
     <use xlink:href="#Arial-BoldMT-68" x="272.314453"/>
     <use xlink:href="#Arial-BoldMT-6f" x="333.398438"/>
     <use xlink:href="#Arial-BoldMT-6c" x="394.482422"/>
     <use xlink:href="#Arial-BoldMT-64" x="422.265625"/>
    </g>
   </g>
   <g id="text_19">
    <!-- S. aureus -->
    <g style="fill: #262626" transform="translate(355.723281 23.76) scale(0.18 -0.18)">
     <defs>
      <path id="Arial-BoldMT-53" d="M 231 1491 
L 1131 1578 
Q 1213 1125 1461 912 
Q 1709 700 2131 700 
Q 2578 700 2804 889 
Q 3031 1078 3031 1331 
Q 3031 1494 2936 1608 
Q 2841 1722 2603 1806 
Q 2441 1863 1863 2006 
Q 1119 2191 819 2459 
Q 397 2838 397 3381 
Q 397 3731 595 4036 
Q 794 4341 1167 4500 
Q 1541 4659 2069 4659 
Q 2931 4659 3367 4281 
Q 3803 3903 3825 3272 
L 2900 3231 
Q 2841 3584 2645 3739 
Q 2450 3894 2059 3894 
Q 1656 3894 1428 3728 
Q 1281 3622 1281 3444 
Q 1281 3281 1419 3166 
Q 1594 3019 2269 2859 
Q 2944 2700 3267 2529 
Q 3591 2359 3773 2064 
Q 3956 1769 3956 1334 
Q 3956 941 3737 597 
Q 3519 253 3119 86 
Q 2719 -81 2122 -81 
Q 1253 -81 787 320 
Q 322 722 231 1491 
z
" transform="scale(0.015625)"/>
      <path id="Arial-BoldMT-2e" d="M 459 0 
L 459 878 
L 1338 878 
L 1338 0 
L 459 0 
z
" transform="scale(0.015625)"/>
      <path id="Arial-BoldMT-20" transform="scale(0.015625)"/>
      <path id="Arial-BoldMT-61" d="M 1116 2306 
L 319 2450 
Q 453 2931 781 3162 
Q 1109 3394 1756 3394 
Q 2344 3394 2631 3255 
Q 2919 3116 3036 2902 
Q 3153 2688 3153 2116 
L 3144 1091 
Q 3144 653 3186 445 
Q 3228 238 3344 0 
L 2475 0 
Q 2441 88 2391 259 
Q 2369 338 2359 363 
Q 2134 144 1878 34 
Q 1622 -75 1331 -75 
Q 819 -75 523 203 
Q 228 481 228 906 
Q 228 1188 362 1408 
Q 497 1628 739 1745 
Q 981 1863 1438 1950 
Q 2053 2066 2291 2166 
L 2291 2253 
Q 2291 2506 2166 2614 
Q 2041 2722 1694 2722 
Q 1459 2722 1328 2630 
Q 1197 2538 1116 2306 
z
M 2291 1594 
Q 2122 1538 1756 1459 
Q 1391 1381 1278 1306 
Q 1106 1184 1106 997 
Q 1106 813 1243 678 
Q 1381 544 1594 544 
Q 1831 544 2047 700 
Q 2206 819 2256 991 
Q 2291 1103 2291 1419 
L 2291 1594 
z
" transform="scale(0.015625)"/>
      <path id="Arial-BoldMT-75" d="M 2644 0 
L 2644 497 
Q 2463 231 2167 78 
Q 1872 -75 1544 -75 
Q 1209 -75 943 72 
Q 678 219 559 484 
Q 441 750 441 1219 
L 441 3319 
L 1319 3319 
L 1319 1794 
Q 1319 1094 1367 936 
Q 1416 778 1544 686 
Q 1672 594 1869 594 
Q 2094 594 2272 717 
Q 2450 841 2515 1023 
Q 2581 1206 2581 1919 
L 2581 3319 
L 3459 3319 
L 3459 0 
L 2644 0 
z
" transform="scale(0.015625)"/>
     </defs>
     <use xlink:href="#Arial-BoldMT-53"/>
     <use xlink:href="#Arial-BoldMT-2e" x="66.699219"/>
     <use xlink:href="#Arial-BoldMT-20" x="94.482422"/>
     <use xlink:href="#Arial-BoldMT-61" x="122.265625"/>
     <use xlink:href="#Arial-BoldMT-75" x="177.880859"/>
     <use xlink:href="#Arial-BoldMT-72" x="238.964844"/>
     <use xlink:href="#Arial-BoldMT-65" x="277.880859"/>
     <use xlink:href="#Arial-BoldMT-75" x="333.496094"/>
     <use xlink:href="#Arial-BoldMT-73" x="394.580078"/>
    </g>
   </g>
   <g id="legend_1">
    <g id="text_20">
     <!-- CFU -->
     <g style="fill: #262626" transform="translate(643.206406 64.580938) scale(0.14 -0.14)">
      <defs>
       <path id="ArialMT-43" d="M 3763 1606 
L 4369 1453 
Q 4178 706 3683 314 
Q 3188 -78 2472 -78 
Q 1731 -78 1267 223 
Q 803 525 561 1097 
Q 319 1669 319 2325 
Q 319 3041 592 3573 
Q 866 4106 1370 4382 
Q 1875 4659 2481 4659 
Q 3169 4659 3637 4309 
Q 4106 3959 4291 3325 
L 3694 3184 
Q 3534 3684 3231 3912 
Q 2928 4141 2469 4141 
Q 1941 4141 1586 3887 
Q 1231 3634 1087 3207 
Q 944 2781 944 2328 
Q 944 1744 1114 1308 
Q 1284 872 1643 656 
Q 2003 441 2422 441 
Q 2931 441 3284 734 
Q 3638 1028 3763 1606 
z
" transform="scale(0.015625)"/>
       <path id="ArialMT-46" d="M 525 0 
L 525 4581 
L 3616 4581 
L 3616 4041 
L 1131 4041 
L 1131 2622 
L 3281 2622 
L 3281 2081 
L 1131 2081 
L 1131 0 
L 525 0 
z
" transform="scale(0.015625)"/>
       <path id="ArialMT-55" d="M 3500 4581 
L 4106 4581 
L 4106 1934 
Q 4106 1244 3950 837 
Q 3794 431 3386 176 
Q 2978 -78 2316 -78 
Q 1672 -78 1262 144 
Q 853 366 678 786 
Q 503 1206 503 1934 
L 503 4581 
L 1109 4581 
L 1109 1938 
Q 1109 1341 1220 1058 
Q 1331 775 1601 622 
Q 1872 469 2263 469 
Q 2931 469 3215 772 
Q 3500 1075 3500 1938 
L 3500 4581 
z
" transform="scale(0.015625)"/>
      </defs>
      <use xlink:href="#ArialMT-43"/>
      <use xlink:href="#ArialMT-46" x="72.216797"/>
      <use xlink:href="#ArialMT-55" x="133.300781"/>
     </g>
    </g>
    <g id="line2d_37">
     <path d="M 616.785 77.752813 
L 628.785 77.752813 
L 640.785 77.752813 
" style="fill: none; stroke: #4b8b9e; stroke-width: 1.5; stroke-linecap: round"/>
     <g>
      <use xlink:href="#m39f008a538" x="628.785" y="77.752813" style="fill: #4b8b9e; stroke: #4b8b9e"/>
     </g>
    </g>
    <g id="text_21">
     <!-- 1 CFU -->
     <g style="fill: #262626" transform="translate(650.385 81.952813) scale(0.12 -0.12)">
      <use xlink:href="#ArialMT-31"/>
      <use xlink:href="#ArialMT-20" x="55.615234"/>
      <use xlink:href="#ArialMT-43" x="83.398438"/>
      <use xlink:href="#ArialMT-46" x="155.615234"/>
      <use xlink:href="#ArialMT-55" x="216.699219"/>
     </g>
    </g>
    <g id="line2d_38">
     <path d="M 616.785 94.727188 
L 628.785 94.727188 
L 640.785 94.727188 
" style="fill: none; stroke: #5fad98; stroke-width: 1.5; stroke-linecap: round"/>
     <g>
      <use xlink:href="#m0937d838f7" x="628.785" y="94.727188" style="fill: #5fad98; stroke: #5fad98"/>
     </g>
    </g>
    <g id="text_22">
     <!-- 5 CFU -->
     <g style="fill: #262626" transform="translate(650.385 98.927188) scale(0.12 -0.12)">
      <use xlink:href="#ArialMT-35"/>
      <use xlink:href="#ArialMT-20" x="55.615234"/>
      <use xlink:href="#ArialMT-43" x="83.398438"/>
      <use xlink:href="#ArialMT-46" x="155.615234"/>
      <use xlink:href="#ArialMT-55" x="216.699219"/>
     </g>
    </g>
    <g id="line2d_39">
     <path d="M 616.785 111.701563 
L 628.785 111.701563 
L 640.785 111.701563 
" style="fill: none; stroke: #d6a46a; stroke-width: 1.5; stroke-linecap: round"/>
     <g>
      <use xlink:href="#m613b3a0d51" x="628.785" y="111.701563" style="fill: #d6a46a; stroke: #d6a46a"/>
     </g>
    </g>
    <g id="text_23">
     <!-- 10 CFU -->
     <g style="fill: #262626" transform="translate(650.385 115.901563) scale(0.12 -0.12)">
      <use xlink:href="#ArialMT-31"/>
      <use xlink:href="#ArialMT-30" x="55.615234"/>
      <use xlink:href="#ArialMT-20" x="111.230469"/>
      <use xlink:href="#ArialMT-43" x="139.013672"/>
      <use xlink:href="#ArialMT-46" x="211.230469"/>
      <use xlink:href="#ArialMT-55" x="272.314453"/>
     </g>
    </g>
    <g id="line2d_40">
     <path d="M 616.785 128.675938 
L 628.785 128.675938 
L 640.785 128.675938 
" style="fill: none; stroke: #c75d4b; stroke-width: 1.5; stroke-linecap: round"/>
     <g>
      <use xlink:href="#m3e0fd7ae5c" x="628.785" y="128.675938" style="fill: #c75d4b; stroke: #c75d4b"/>
     </g>
    </g>
    <g id="text_24">
     <!-- 50 CFU -->
     <g style="fill: #262626" transform="translate(650.385 132.875938) scale(0.12 -0.12)">
      <use xlink:href="#ArialMT-35"/>
      <use xlink:href="#ArialMT-30" x="55.615234"/>
      <use xlink:href="#ArialMT-20" x="111.230469"/>
      <use xlink:href="#ArialMT-43" x="139.013672"/>
      <use xlink:href="#ArialMT-46" x="211.230469"/>
      <use xlink:href="#ArialMT-55" x="272.314453"/>
     </g>
    </g>
    <g id="line2d_41">
     <path d="M 616.785 145.650313 
L 628.785 145.650313 
L 640.785 145.650313 
" style="fill: none; stroke: #a52a2a; stroke-width: 1.5; stroke-linecap: round"/>
     <g>
      <use xlink:href="#m4bfbad868e" x="628.785" y="145.650313" style="fill: #a52a2a; stroke: #a52a2a"/>
     </g>
    </g>
    <g id="text_25">
     <!-- 100 CFU -->
     <g style="fill: #262626" transform="translate(650.385 149.850313) scale(0.12 -0.12)">
      <use xlink:href="#ArialMT-31"/>
      <use xlink:href="#ArialMT-30" x="55.615234"/>
      <use xlink:href="#ArialMT-30" x="111.230469"/>
      <use xlink:href="#ArialMT-20" x="166.845703"/>
      <use xlink:href="#ArialMT-43" x="194.628906"/>
      <use xlink:href="#ArialMT-46" x="266.845703"/>
      <use xlink:href="#ArialMT-55" x="327.929688"/>
     </g>
    </g>
   </g>
  </g>
 </g>
 <defs>
  <clipPath id="p85a60f9fb8">
   <rect x="83.2775" y="43.76" width="625.9225" height="475.5125"/>
  </clipPath>
 </defs>
</svg>
